<?xml version="1.0" encoding="utf-8"?>
<!-- Generator: Adobe Illustrator 23.0.3, SVG Export Plug-In . SVG Version: 6.00 Build 0)  -->
<svg version="1.1" id="Layer_1" xmlns="http://www.w3.org/2000/svg" xmlns:xlink="http://www.w3.org/1999/xlink" x="0px" y="0px"
	 viewBox="0 0 64 64" style="enable-background:new 0 0 64 64;" xml:space="preserve">
<style type="text/css">
	.st0{fill:#CCCCCC;}
	.st1{fill:#666666;stroke:#666666;stroke-width:3;stroke-linecap:round;stroke-linejoin:round;stroke-miterlimit:10;}
	.st2{fill:#666666;stroke:#CCCCCC;stroke-width:3;stroke-linecap:round;stroke-linejoin:round;stroke-miterlimit:10;}
	.st3{fill:#CCCCCC;stroke:#666666;stroke-width:3;stroke-linecap:round;stroke-linejoin:round;stroke-miterlimit:10;}
	.st4{fill:none;}
	.st5{fill:#666666;}
</style>
<polygon class="st0" points="48,48 48,56 56,48 "/>
<polygon class="st0" points="40,7 40,15 56,15 "/>
<polygon class="st0" points="8,40 16,40 16,56 "/>
<rect x="7.5" y="7.5" class="st1" width="32" height="32"/>
<line class="st2" x1="15.5" y1="23.5" x2="23.5" y2="15.5"/>
<rect x="23.5" y="15.5" class="st3" width="32" height="32"/>
<line class="st3" x1="7.5" y1="39.5" x2="15.5" y2="55.5"/>
<line class="st3" x1="47.5" y1="55.5" x2="55.5" y2="47.5"/>
<rect x="15.5" y="23.5" class="st3" width="32" height="32"/>
<line class="st3" x1="39.5" y1="7.5" x2="55.5" y2="15.5"/>
<g>
	<rect x="24" y="32" class="st4" width="16" height="24"/>
	<path class="st5" d="M38.5,35.4v1h-2.4v-1c0-0.1,0-0.1-0.1-0.1h-8c-0.1,0-0.1,0-0.1,0.1v2.7c0,0.1,0,0.1,0.1,0.1h8
		c0.7,0,1.3,0.2,1.8,0.7c0.5,0.5,0.7,1.1,0.7,1.8v2.7c0,0.7-0.2,1.3-0.7,1.8c-0.5,0.5-1.1,0.7-1.8,0.7h-8c-0.7,0-1.3-0.2-1.8-0.7
		c-0.5-0.5-0.7-1.1-0.7-1.8v-1h2.4v1c0,0.1,0,0.1,0.1,0.1h8c0.1,0,0.1,0,0.1-0.1v-2.7c0-0.1,0-0.1-0.1-0.1h-8
		c-0.7,0-1.3-0.2-1.8-0.7c-0.5-0.5-0.7-1.1-0.7-1.8v-2.7c0-0.7,0.2-1.3,0.7-1.8c0.5-0.5,1.1-0.7,1.8-0.7h8c0.7,0,1.3,0.2,1.8,0.7
		C38.2,34.1,38.5,34.7,38.5,35.4z"/>
</g>
<g>
</g>
<g>
</g>
<g>
</g>
<g>
</g>
<g>
</g>
<g>
</g>
<g>
</g>
<g>
</g>
<g>
</g>
<g>
</g>
<g>
</g>
</svg>
